<svg width="93" height="26" viewBox="0 0 93 26" fill="none" xmlns="http://www.w3.org/2000/svg">
<path d="M0.793324 20V1.81818H12.6186V4.57919H4.087V9.51527H12.006V12.2763H4.087V17.239H12.6896V20H0.793324ZM18.4647 6.36364L21.2168 11.3974L24.0133 6.36364H27.4135L23.3031 13.1818L27.4846 20H24.1021L21.2168 15.0906L18.3581 20H14.949L19.1039 13.1818L15.0556 6.36364H18.4647ZM29.8993 25.1136V6.36364H33.0598V8.61861H33.2463C33.412 8.28717 33.6458 7.93501 33.9476 7.56214C34.2495 7.18336 34.6578 6.86079 35.1728 6.59446C35.6877 6.32221 36.3446 6.18608 37.1436 6.18608C38.1971 6.18608 39.1471 6.45537 39.9934 6.99396C40.8457 7.52663 41.5204 8.31676 42.0176 9.36435C42.5207 10.406 42.7722 11.6844 42.7722 13.1996C42.7722 14.697 42.5266 15.9695 42.0353 17.017C41.5441 18.0646 40.8753 18.8636 40.0289 19.4141C39.1826 19.9645 38.2238 20.2397 37.1525 20.2397C36.3713 20.2397 35.7232 20.1095 35.2083 19.8491C34.6934 19.5887 34.2791 19.275 33.9654 18.908C33.6576 18.5352 33.4179 18.183 33.2463 17.8516H33.1131V25.1136H29.8993ZM33.051 13.1818C33.051 14.0637 33.1752 14.8361 33.4238 15.4989C33.6783 16.1618 34.0423 16.6797 34.5158 17.0526C34.9952 17.4195 35.5752 17.603 36.2559 17.603C36.9661 17.603 37.5609 17.4136 38.0403 17.0348C38.5197 16.6501 38.8807 16.1263 39.1234 15.4634C39.372 14.7946 39.4963 14.0341 39.4963 13.1818C39.4963 12.3355 39.3749 11.5838 39.1323 10.9268C38.8896 10.2699 38.5286 9.75497 38.0492 9.3821C37.5698 9.00923 36.972 8.8228 36.2559 8.8228C35.5693 8.8228 34.9863 9.00331 34.5069 9.36435C34.0275 9.72538 33.6635 10.2314 33.415 10.8825C33.1723 11.5335 33.051 12.3 33.051 13.1818ZM51.5613 20.2663C50.1941 20.2663 49.0133 19.9822 48.019 19.4141C47.0306 18.84 46.2701 18.0291 45.7374 16.9815C45.2047 15.928 44.9384 14.6881 44.9384 13.2617C44.9384 11.859 45.2047 10.628 45.7374 9.56854C46.276 8.5032 47.0276 7.6746 47.9924 7.08274C48.9571 6.48497 50.0905 6.18608 51.3926 6.18608C52.233 6.18608 53.0261 6.32221 53.7718 6.59446C54.5235 6.86079 55.1864 7.27509 55.7605 7.83736C56.3405 8.39962 56.7962 9.11577 57.1277 9.9858C57.4591 10.8499 57.6248 11.8797 57.6248 13.0753V14.0607H46.4476V11.8945H54.5442C54.5383 11.279 54.4051 10.7315 54.1447 10.2521C53.8843 9.76681 53.5203 9.38506 53.0527 9.10689C52.5911 8.82872 52.0525 8.68963 51.437 8.68963C50.78 8.68963 50.2029 8.84943 49.7058 9.16903C49.2086 9.48272 48.821 9.89702 48.5428 10.4119C48.2705 10.9209 48.1315 11.4802 48.1255 12.0898V13.9808C48.1255 14.7739 48.2705 15.4545 48.5605 16.0227C48.8506 16.585 49.256 17.017 49.7768 17.3189C50.2976 17.6148 50.9073 17.7628 51.6056 17.7628C52.0732 17.7628 52.4964 17.6977 52.8752 17.5675C53.254 17.4313 53.5824 17.2331 53.8606 16.9727C54.1388 16.7122 54.3489 16.3897 54.4909 16.005L57.4917 16.3423C57.3023 17.1354 56.9412 17.8279 56.4086 18.4197C55.8818 19.0057 55.2071 19.4614 54.3844 19.7869C53.5617 20.1065 52.6207 20.2663 51.5613 20.2663ZM63.5574 12.0099V20H60.3437V6.36364H63.4154V8.68075H63.5752C63.8889 7.91726 64.389 7.31061 65.0756 6.8608C65.768 6.41098 66.6233 6.18608 67.6412 6.18608C68.5823 6.18608 69.402 6.38731 70.1004 6.78977C70.8047 7.19223 71.3492 7.77521 71.7339 8.53871C72.1246 9.3022 72.3169 10.2285 72.311 11.3175V20H69.0972V11.8146C69.0972 10.9032 68.8605 10.19 68.387 9.67507C67.9194 9.16016 67.2713 8.9027 66.4427 8.9027C65.8805 8.9027 65.3804 9.02699 64.9424 9.27557C64.5103 9.51823 64.17 9.87038 63.9214 10.332C63.6788 10.7937 63.5574 11.353 63.5574 12.0099ZM86.3557 9.96804L83.426 10.2876C83.3432 9.99171 83.1982 9.71354 82.991 9.45312C82.7898 9.19271 82.5175 8.9826 82.1743 8.8228C81.831 8.663 81.4108 8.5831 80.9136 8.5831C80.2448 8.5831 79.6826 8.7281 79.2268 9.01811C78.777 9.30812 78.5551 9.68395 78.561 10.1456C78.5551 10.5421 78.7001 10.8647 78.996 11.1133C79.2979 11.3619 79.795 11.5661 80.4875 11.7259L82.8135 12.223C84.1037 12.5012 85.0625 12.9421 85.6899 13.5458C86.3232 14.1495 86.6428 14.9396 86.6487 15.9162C86.6428 16.7744 86.3912 17.532 85.8941 18.1889C85.4028 18.84 84.7193 19.349 83.8433 19.7159C82.9674 20.0829 81.9612 20.2663 80.8248 20.2663C79.1558 20.2663 77.8123 19.9171 76.7943 19.2188C75.7763 18.5144 75.1697 17.5349 74.9743 16.2802L78.1082 15.9783C78.2503 16.5939 78.5521 17.0585 79.0138 17.3722C79.4754 17.6858 80.0761 17.8427 80.816 17.8427C81.5795 17.8427 82.192 17.6858 82.6537 17.3722C83.1212 17.0585 83.355 16.6708 83.355 16.2092C83.355 15.8185 83.2041 15.496 82.9023 15.2415C82.6063 14.987 82.1447 14.7917 81.5173 14.6555L79.1913 14.1673C77.8833 13.895 76.9156 13.4363 76.2883 12.7912C75.6609 12.1402 75.3502 11.3175 75.3561 10.3232C75.3502 9.48272 75.578 8.75473 76.0397 8.1392C76.5073 7.51776 77.1553 7.03835 77.9839 6.70099C78.8184 6.35772 79.7802 6.18608 80.8692 6.18608C82.4672 6.18608 83.7249 6.5264 84.6423 7.20703C85.5656 7.88767 86.1367 8.808 86.3557 9.96804ZM89.2987 20V6.36364H92.5125V20H89.2987ZM90.9145 4.42827C90.4055 4.42827 89.9675 4.25959 89.6006 3.92223C89.2336 3.57895 89.0502 3.16761 89.0502 2.68821C89.0502 2.20289 89.2336 1.79155 89.6006 1.45419C89.9675 1.11091 90.4055 0.939275 90.9145 0.939275C91.4294 0.939275 91.8674 1.11091 92.2284 1.45419C92.5954 1.79155 92.7789 2.20289 92.7789 2.68821C92.7789 3.16761 92.5954 3.57895 92.2284 3.92223C91.8674 4.25959 91.4294 4.42827 90.9145 4.42827Z" fill="black"/>
</svg>
